<svg height='120px' width='120px'  fill="rgba(0,0,0,.05)" xmlns="http://www.w3.org/2000/svg" xmlns:xlink="http://www.w3.org/1999/xlink" version="1.1" x="0px" y="0px" viewBox="0 0 100 100" enable-background="new 0 0 100 100" xml:space="preserve"><path d="M93.5,57.2L86,52.7c0.1-1.8,0.1-3.6,0-5.3l7.5-4.5c1.1-0.7,1.7-1.9,1.4-3.2c-0.5-2.2-1.1-4.4-1.9-6.6  c-0.8-2.1-1.7-4.2-2.7-6.2c-0.5-1-1.5-1.6-2.7-1.6H76.4c-0.1-0.1-0.3-0.3-0.4-0.4l2.6-9.6c0.3-1.2-0.1-2.5-1.2-3.2  C74,9.6,70.2,7.8,66.2,6.6c-0.3-0.1-0.5-0.1-0.8-0.1H51.5c-0.5,0-1.1,0.1-1.5,0.4c-0.5-0.3-1-0.4-1.5-0.4H34.6c-0.3,0-0.6,0-0.8,0.1  c-2,0.6-3.9,1.3-5.8,2.2c-1.9,0.9-3.7,2-5.4,3.2c-1,0.7-1.5,2-1.2,3.2l2.6,9.6c-0.1,0.1-0.3,0.3-0.4,0.4H12.3  c-1.1,0-2.1,0.6-2.7,1.6C7.6,30.8,6,35.1,5.1,39.6c-0.3,1.2,0.3,2.5,1.4,3.2l7.5,4.5c-0.1,1.7-0.1,3.3,0,5c0,0.1,0,0.2,0,0.4  l-7.5,4.5c-1.1,0.7-1.7,1.9-1.4,3.2c0.5,2.2,1.1,4.4,1.9,6.6c0.8,2.1,1.7,4.2,2.7,6.2c0.5,1,1.5,1.6,2.7,1.6h11.3  c0.1,0.1,0.3,0.3,0.4,0.4l-2.6,9.6C21,86,21.5,87.3,22.5,88c3.5,2.5,7.3,4.3,11.3,5.4c0.3,0.1,0.5,0.1,0.8,0.1h13.9  c0.5,0,1.1-0.1,1.5-0.4c0.5,0.3,1,0.4,1.5,0.4h13.9c0.3,0,0.6,0,0.8-0.1c2-0.6,3.9-1.3,5.8-2.2c1.9-0.9,3.7-2,5.4-3.2  c1-0.7,1.5-2,1.2-3.2L76,75.1c0.1-0.1,0.3-0.3,0.4-0.4h11.3c1.1,0,2.1-0.6,2.7-1.6c2.1-3.9,3.6-8.2,4.6-12.7  C95.2,59.1,94.6,57.8,93.5,57.2z M29.5,12c1.7-0.8,3.4-1.5,5.2-2h9.4c-0.5,0.2-0.9,0.4-1.4,0.6c-1.8,0.9-3.5,1.9-5.2,3  c-0.1,0.1-0.2,0.2-0.3,0.3H25.9C27.1,13.2,28.3,12.6,29.5,12z M39.2,26.3c-1.3,1.3-2.5,2.7-3.6,4.3l-9.1-3.3c0,0,0,0-0.1,0  c0.4-0.3,0.7-0.7,1.1-1H39.2z M8.6,39.7c0.9-3.9,2.2-7.5,4-11h11.2h0.6h0.4c-0.1,0.2-0.2,0.5-0.3,0.7c-0.3,0.6-0.6,1.2-0.8,1.8  c-0.1,0.2-0.1,0.3-0.2,0.5c-0.1,0.2-0.1,0.3-0.2,0.5c-0.9,2.4-1.7,4.8-2.3,7.4H8.6z M30,53.7L30,53.7l-12.4,0c-0.3-2.5-0.3-5,0-7.5  h12.3l0,0C29.7,48.8,29.7,51.3,30,53.7z M25.1,71.2h-0.3h-0.4h-0.6H12.6c-0.9-1.7-1.7-3.6-2.4-5.5C9.6,64,9,62.1,8.6,60.3H21h0.5  c0.4,2,1,3.9,1.7,5.8c0.2,0.5,0.4,1,0.6,1.5c0.1,0.2,0.1,0.3,0.2,0.5c0.1,0.2,0.1,0.3,0.2,0.5c0.4,0.9,0.8,1.7,1.2,2.6H25.1z   M34.7,90c-3.1-0.9-6-2.2-8.8-3.9h11.4c0.1,0.1,0.2,0.2,0.3,0.3c2.1,1.5,4.2,2.7,6.5,3.6H34.7z M26.5,72.7  C26.5,72.7,26.5,72.7,26.5,72.7l9.1-3.3c1.1,1.6,2.3,3,3.6,4.3H27.5C27.2,73.3,26.8,73,26.5,72.7z M87.2,70.5l-9-3.3  c-0.4-0.2-0.9,0-1.2,0.4c0,0,0,0,0,0c-0.1,0.2-0.2,0.3-0.3,0.5c-0.1,0.2-0.2,0.3-0.3,0.5c-0.6,0.9-1.3,1.8-2.1,2.6  c-0.1,0.2-0.3,0.3-0.5,0.5c-0.1,0.1-0.2,0.3-0.4,0.4C73,72.6,72.5,73,72,73.4c-0.3,0.3-0.4,0.6-0.3,1l2.9,10.7  c-1.4,0.9-2.8,1.7-4.3,2.5c-1.4,0.7-2.9,1.2-4.4,1.7l-4.4-9.8c-0.2-0.4-0.5-0.6-0.9-0.6c-0.1,0-0.1,0-0.2,0c-2.3,0.4-4.7,0.4-7.1,0  c-0.4-0.1-0.8,0.1-1,0.5c0,0,0,0-0.1,0.1l-0.2,0.4l0,0L52,80.2l-0.1,0.2l-2.2,4.9l-0.3,0.6l-0.3,0.6l-1.2,2.8  c-3-0.9-5.9-2.3-8.6-4.2l1.4-5l0-0.2l1.5-5.5c0.1-0.4,0-0.8-0.3-1c-1.9-1.7-3.6-3.6-5-5.8c-0.3-0.4-0.7-0.6-1.2-0.4l-1.2,0.4  l-1.4,0.5l-1.4,0.5l-5,1.8c-0.3-0.6-0.6-1.2-0.8-1.8c-0.1-0.2-0.2-0.3-0.2-0.5c-0.1-0.2-0.1-0.3-0.2-0.5c-0.3-0.7-0.6-1.4-0.8-2.1  c-0.6-1.7-1.1-3.5-1.6-5.3l8.5-5.1c0.3-0.2,0.5-0.6,0.5-1c-0.3-2.7-0.3-5.5,0-8.3c0-0.4-0.1-0.8-0.5-1L23,39.8  c0.6-2.6,1.4-5,2.4-7.4c0.1-0.2,0.1-0.3,0.2-0.5c0.1-0.2,0.2-0.3,0.2-0.5c0.3-0.6,0.5-1.2,0.8-1.8l5,1.8l1.4,0.5l1.4,0.5l1.2,0.4  c0.4,0.2,0.9,0,1.2-0.4c1.4-2.2,3.1-4.2,5-5.8c0.3-0.3,0.4-0.6,0.3-1l-1.5-5.5l0-0.2l-1.4-5c1.4-0.9,2.8-1.7,4.3-2.5  c1.4-0.7,2.9-1.2,4.4-1.7l1.2,2.8l0.3,0.6l0.3,0.6l2.2,4.9l0.1,0.2l0.1,0.3l0,0l0.2,0.4c0,0,0,0.1,0.1,0.1c0.2,0.3,0.6,0.5,1,0.5  c2.3-0.4,4.7-0.4,7.1,0c0.4,0.1,0.9-0.2,1.1-0.6l4.4-9.8c3,0.9,5.9,2.3,8.6,4.2l-2.9,10.7c-0.1,0.4,0,0.8,0.3,1  c0.5,0.4,1,0.9,1.4,1.3c0.1,0.1,0.2,0.3,0.4,0.4c0.2,0.2,0.3,0.3,0.4,0.5c0.7,0.8,1.4,1.7,2.1,2.6c0.1,0.2,0.2,0.3,0.3,0.5  c0.1,0.2,0.2,0.3,0.3,0.5c0,0,0,0,0,0c0.3,0.4,0.7,0.6,1.2,0.4l9-3.3c0.8,1.6,1.5,3.2,2.1,4.9c0.6,1.7,1.1,3.5,1.6,5.3l-8.5,5.1  c-0.3,0.2-0.5,0.6-0.5,1c0.3,2.7,0.3,5.5,0,8.3c0,0.4,0.1,0.8,0.5,1l8.5,5.1C90.1,63.8,88.8,67.3,87.2,70.5z M68.1,44.8  c2.5,7-0.4,15-6.5,17.9c-1.5,0.7-3.1,1.1-4.6,1.1c-1.6,0-3.1-0.4-4.5-1c-0.6-0.3-1.2-0.6-1.7-1c-0.2-0.2-0.5-0.3-0.7-0.5  c-0.2-0.1-0.3-0.2-0.5-0.4c-0.1-0.1-0.2-0.2-0.4-0.3c-1.5-1.4-2.7-3.2-3.4-5.4c-2-5.7-0.5-12.1,3.4-15.8c0.1-0.1,0.3-0.2,0.4-0.3  c0.6-0.5,1.2-1,1.9-1.4c0.3-0.1,0.5-0.3,0.8-0.4c0.1,0,0.1,0,0.2-0.1c1.4-0.7,2.9-1,4.5-1C61.8,36.2,66.2,39.6,68.1,44.8z"></path></svg>