<?xml version="1.0" encoding="UTF-8"?>
<svg width="196px" height="187px" viewBox="0 0 196 187" version="1.1" xmlns="http://www.w3.org/2000/svg" xmlns:xlink="http://www.w3.org/1999/xlink">
    <title>Page 1</title>
    <g id="united_arrows" stroke="none" stroke-width="1" fill="none" fill-rule="evenodd">
        <path d="M98.0833333,95.9125 C96.9333333,95.9125 96,94.9791667 96,93.8291667 L96,62.2166667 C96,39.675 113.016667,25.1125 139.358333,25.1125 L141.833333,25.1125 L141.833333,2.17083333 C141.833333,1.3625 142.3,0.625 143.033333,0.283333333 C143.7625,-0.0625 144.629167,0.05 145.25,0.570833333 L195.25,42.2625 C195.729167,42.6625 196.004167,43.2541667 196.000047,43.8791667 C195.995833,44.5041667 195.716667,45.0916667 195.225,45.4875 L145.225,85.85 C144.6,86.3541667 143.745833,86.4583333 143.016667,86.1125 C142.295833,85.7625 141.833333,85.025 141.833333,84.225 L141.833333,62.6083333 L139.358333,62.6083333 C114.820833,62.6125 100.166667,74.2833333 100.166667,93.8291667 C100.166667,94.9833333 99.2333333,95.9125 98.0833333,95.9125 Z M139.358333,58.4458333 L143.916667,58.4458333 C145.066667,58.4458333 146,59.3833333 146,60.5291667 L146,79.8666667 L190.633333,43.8416667 L146,6.62083333 L146,27.1958333 C146,28.3458333 145.066667,29.2791667 143.916667,29.2791667 L139.358333,29.2791667 C115.55,29.2791667 100.166667,42.2083333 100.166667,62.2166667 L100.166667,76.8166667 C106.675,65.1875 120.5,58.4458333 139.358333,58.4458333 Z" id="Shape" fill="#989ba3" fill-rule="nonzero"></path>
        <g id="arrow_bg" transform="translate(50.200000, 138.750000) scale(-1, -1) translate(-50.200000, -138.750000) translate(0.200000, 91.000000)" fill="#989ba3" fill-rule="nonzero">
            <path d="M2.08333333,95.3300564 C0.933333333,95.3300564 0,94.4015842 0,93.2575738 L0,61.8097222 C0,39.3854601 17.0166667,24.8988064 43.3583333,24.8988064 L45.8333333,24.8988064 L45.8333333,2.0766276 C45.8333333,1.27250434 46.3,0.538845486 47.0333333,0.198958333 C47.7625,-0.145073785 48.6291667,-0.0331597222 49.25,0.484960937 L99.25,41.9594835 C99.7291667,42.3574002 100.004167,42.9459852 100.000047,43.56773 C99.9958333,44.1894748 99.7166667,44.7739149 99.225,45.1676866 L49.225,85.3199653 C48.6,85.8215061 47.7458333,85.9251302 47.0166667,85.5810981 C46.2958333,85.232921 45.8333333,84.4992622 45.8333333,83.7034288 L45.8333333,62.199349 L43.3583333,62.199349 C18.8208333,62.2034939 4.16666667,73.8135417 4.16666667,93.2575738 C4.16666667,94.4057292 3.23333333,95.3300564 2.08333333,95.3300564 Z M43.3583333,58.0585286 L47.9166667,58.0585286 C49.0666667,58.0585286 50,58.9911458 50,60.1310113 L50,79.3677951 L94.6333333,43.5304253 L50,6.50345052 L50,26.9712891 C50,28.1152995 49.0666667,29.0437717 47.9166667,29.0437717 L43.3583333,29.0437717 C19.55,29.0437717 4.16666667,41.905599 4.16666667,61.8097222 L4.16666667,76.3336806 C10.675,64.7650825 24.5,58.0585286 43.3583333,58.0585286 Z" id="Shape"></path>
        </g>
    </g>
</svg>