<svg height='100px' width='100px'  fill="#040a0c" xmlns="http://www.w3.org/2000/svg" xmlns:xlink="http://www.w3.org/1999/xlink" version="1.1" x="0px" y="0px" viewBox="0 0 100 100" enable-background="new 0 0 100 100" xml:space="preserve"><g><path d="M46.598,56.473c-17.928,0-32.763-5.789-33.015-5.89l0.742-1.857c0.42,0.167,42.228,16.458,69.552-6.5l1.286,1.531   C73.47,53.582,59.261,56.473,46.598,56.473z"></path></g><g><path d="M82.672,51.609c-0.087,0-0.175-0.012-0.263-0.036c-0.533-0.145-0.847-0.695-0.702-1.228l1.906-7.002l-7.008-2.442   c-0.521-0.182-0.797-0.752-0.615-1.273c0.182-0.522,0.752-0.799,1.273-0.615l8.77,3.056l-2.396,8.802   C83.515,51.316,83.112,51.608,82.672,51.609z"></path></g></svg>