<svg height='100px' width='100px'  fill="#040a0c" xmlns="http://www.w3.org/2000/svg" xmlns:xlink="http://www.w3.org/1999/xlink" version="1.1" x="0px" y="0px" viewBox="0 0 100 100" enable-background="new 0 0 100 100" xml:space="preserve"><path d="M50,5.214c-24.854,0-45,20.146-45,45c0,24.854,20.146,45,45,45c24.854,0,45-20.146,45-45C95,25.36,74.854,5.214,50,5.214   M50,92.486c-23.31,0-42.272-18.962-42.272-42.272C7.728,26.904,26.69,7.941,50,7.941s42.272,18.963,42.272,42.272  C92.272,73.524,73.31,92.486,50,92.486"></path><rect x="48.637" y="81.577" width="2.727" height="5.455"></rect><rect x="48.637" y="13.396" width="2.727" height="5.455"></rect><rect x="81.363" y="48.851" width="5.455" height="2.727"></rect><rect x="13.182" y="48.851" width="5.455" height="2.727"></rect><rect x="71.379" y="72.956" transform="matrix(-0.7069 -0.7073 0.7073 -0.7069 73.9273 179.2723)" width="5.452" height="2.727"></rect><rect x="23.168" y="24.745" transform="matrix(0.7074 0.7068 -0.7068 0.7074 26.0323 -10.6635)" width="5.455" height="2.727"></rect><rect x="60.045" y="80.459" transform="matrix(-0.3744 -0.9272 0.9272 -0.3744 10.4055 170.6664)" width="5.453" height="2.728"></rect><rect x="34.503" y="17.241" transform="matrix(0.3747 0.9272 -0.9272 0.3747 40.531 -22.8826)" width="5.453" height="2.728"></rect><rect x="78.881" y="36.078" transform="matrix(-0.9272 0.3745 -0.3745 -0.9272 171.3004 41.595)" width="5.455" height="2.729"></rect><rect x="15.663" y="61.621" transform="matrix(0.9272 -0.3746 0.3746 0.9272 -22.2568 11.4768)" width="5.456" height="2.728"></rect><rect x="78.654" y="62.171" transform="matrix(-0.9205 -0.3908 0.3908 -0.9205 131.4558 153.8231)" width="5.454" height="2.727"></rect><rect x="15.891" y="35.531" transform="matrix(0.9206 0.3904 -0.3904 0.9206 15.8817 -4.3412)" width="5.455" height="2.727"></rect><rect x="61.957" y="16.107" transform="matrix(0.9207 0.3902 -0.3902 0.9207 12.3681 -23.2149)" width="2.728" height="5.453"></rect><rect x="35.315" y="78.869" transform="matrix(-0.9205 -0.3906 0.3906 -0.9205 38.5704 171.0355)" width="2.727" height="5.452"></rect><path d="M44.986,44.802L21.893,78.267c-0.108,0.157,0.08,0.346,0.236,0.237L55.595,55.41l23.094-33.467  c0.107-0.157-0.08-0.343-0.237-0.236L44.986,44.802z M32.059,68.338l14.601-21.35l6.692,6.693L32.059,68.338z"></path></svg>