<?xml version="1.0" encoding="UTF-8"?>
<svg width="1443px" height="428px" viewBox="0 0 1443 428" version="1.1" xmlns="http://www.w3.org/2000/svg" xmlns:xlink="http://www.w3.org/1999/xlink">
    <title>Page 1</title>
    <g id="Page-1" stroke="none" stroke-width="1" fill="none" fill-rule="evenodd">
        <path d="M235.5,106.578313 C177.786244,106.578313 131,152.916842 131,210.078313 C131,267.239785 177.786244,313.578313 235.5,313.578313" id="Path" stroke="#3A3A3C" stroke-width="8" stroke-linecap="round"></path>
        <path d="M235.691733,175.131505 C214.83723,175.131505 197.931316,192.12087 197.931316,213.078313 C197.931316,234.035757 214.83723,251.025122 235.691733,251.025122" id="Path" stroke="#3A3A3C" stroke-width="8"></path>
        <line x1="236.597983" y1="156.578313" x2="236.597983" y2="174.897462" id="Line" stroke="#3A3A3C" stroke-width="8" stroke-linecap="round"></line>
        <line x1="236.597983" y1="251.259164" x2="236.597983" y2="269.578313" id="Line" stroke="#3A3A3C" stroke-width="8" stroke-linecap="round"></line>
        <line x1="195.577128" y1="167.158687" x2="208.633967" y2="180.275692" id="Line" stroke="#3A3A3C" stroke-width="8" stroke-linecap="round"></line>
        <line x1="194.298158" y1="256.671629" x2="207.354997" y2="243.554625" id="Line" stroke="#3A3A3C" stroke-width="8" stroke-linecap="round"></line>
        <line x1="175.115248" y1="210.630295" x2="193.582339" y2="210.630295" id="Line" stroke="#3A3A3C" stroke-width="8" stroke-linecap="round"></line>
        <polyline id="Path-2" stroke="#3A3A3C" stroke-width="8" stroke-linecap="round" stroke-linejoin="round" transform="translate(116.500000, 142.500000) scale(-1, 1) translate(-116.500000, -142.500000) " points="4 4 49.4352967 4 50.64534 63.4982018 94.3966534 84.1096577 141.216182 44.0548288 188.538371 93.1757874 153.777702 133.874254 168.969475 180.788276 229 187.147542 229 253.221961 168.969475 256.654015 162.071589 281"></polyline>
        <path d="M73,364.041922 L98.8363675,389.957467 L147.240579,347.578313 L192.905492,364.041922 C197.1033,403.73285 199.202203,423.578313 199.202203,423.578313 C199.202203,423.578313 209.71422,423.578313 230.738254,423.578313" id="Path" stroke="#3A3A3C" stroke-width="8" stroke-linecap="round" stroke-linejoin="round"></path>        
    </g>
</svg>