<?xml version="1.0" encoding="UTF-8"?>
<svg width="174px" height="171px" viewBox="0 0 174 171" version="1.1" xmlns="http://www.w3.org/2000/svg" xmlns:xlink="http://www.w3.org/1999/xlink">
    <title>Group 8</title>
    <g id="Page-1" stroke="none" stroke-width="1" fill="none" fill-rule="evenodd">
        <g id="Group-8" transform="translate(4.000000, 4.000000)">
            <g id="Group-6"></g>
            <ellipse id="Oval" stroke="#00B3BE" stroke-width="8" cx="84" cy="81.5" rx="40" ry="39.5"></ellipse>
            <g id="Group-7" transform="translate(60.810375, 59.000000)" stroke="#00B3BE" stroke-width="8">
                <circle id="Oval" cx="23.6896253" cy="23.5" r="14.5"></circle>
                <line x1="25.1896253" y1="2.8449465e-14" x2="25.1896253" y2="7" id="Line" stroke-linecap="round"></line>
                <line x1="25.1896253" y1="40" x2="25.1896253" y2="47" id="Line" stroke-linecap="round"></line>
                <line x1="11.7655663" y1="5.05100456" x2="9.81949393" y2="11.8681367" id="Line" stroke-linecap="round" transform="translate(10.792530, 8.459571) rotate(-60.941701) translate(-10.792530, -8.459571) "></line>
                <line x1="40.4806571" y1="33.2610203" x2="38.5345848" y2="40.0781525" id="Line" stroke-linecap="round" transform="translate(39.507621, 36.669586) rotate(-60.941701) translate(-39.507621, -36.669586) "></line>
                <line x1="38.9240689" y1="6.77036862" x2="40.8701412" y2="13.5875008" id="Line" stroke-linecap="round" transform="translate(39.897105, 10.178935) rotate(-119.058299) translate(-39.897105, -10.178935) "></line>
                <line x1="9.32836967" y1="34.242948" x2="11.274442" y2="41.0600802" id="Line" stroke-linecap="round" transform="translate(10.301406, 37.651514) rotate(-119.058299) translate(-10.301406, -37.651514) "></line>
                <line x1="4.94787362" y1="19.1552819" x2="3" y2="25.9738752" id="Line" stroke-linecap="round" transform="translate(3.973937, 22.564579) rotate(-105.943097) translate(-3.973937, -22.564579) "></line>
                <line x1="45.3438178" y1="19.1552819" x2="43.3959442" y2="25.9738752" id="Line" stroke-linecap="round" transform="translate(44.369881, 22.564579) rotate(-105.943097) translate(-44.369881, -22.564579) "></line>
            </g>
            <polyline id="Path-2" stroke="#00B3BE" stroke-width="8" stroke-linecap="round" stroke-linejoin="round" points="80 0 97.3663801 0 97.8288855 22.768265 114.55161 30.6556813 132.447074 15.3278406 150.534666 34.1250306 137.248366 49.6991729 143.055 67.6518313 166 70.0853409 166 95.3701365 143.055 96.6834857 140.418474 106"></polyline>
            <polyline id="Path-3" stroke="#00B3BE" stroke-width="8" stroke-linecap="round" stroke-linejoin="round" points="65 25.6327998 52.5808499 30.9390437 34.6812685 17 17.4245474 34.3553278 30.4533718 50.82943 25.2886817 66.8520576 0 69.2456956 0 95.4080458 25.2886817 97.8016839 30.4533718 110"></polyline>
            <path d="M22,140.282167 L31.8879925,150.170993 L50.4130611,134 L67.8897563,140.282167 C69.4963245,155.427389 70.2996087,163 70.2996087,163 C70.2996087,163 78.6307243,163 95.2929556,163 L96.6391806,142.688205 L113.099615,136.294798 L131.04891,150.170993 L146,137.833934" id="Path-4" stroke="#00B3BE" stroke-width="8" stroke-linecap="round" stroke-linejoin="round"></path>
            <circle id="Oval" fill="#00B3BE" cx="22.5" cy="125.5" r="3.5"></circle>
            <circle id="Oval" fill="#00B3BE" cx="143.5" cy="122.5" r="3.5"></circle>
            <circle id="Oval" fill="#00B3BE" cx="69.5" cy="9.5" r="3.5"></circle>
        </g>
    </g>
</svg>