<?xml version="1.0" encoding="UTF-8"?>
<svg width="122px" height="118px" viewBox="0 0 122 118" version="1.1" xmlns="http://www.w3.org/2000/svg" xmlns:xlink="http://www.w3.org/1999/xlink">
    <title>Page 1</title>
    <g id="presentation-img" stroke="none" stroke-width="1" fill="none" fill-rule="evenodd">
        <circle id="Oval" fill="#00B3BE" cx="59" cy="59" r="59"></circle>
        <polygon id="Triangle" fill="#00B3BE" transform="translate(106.000000, 99.500000) scale(-1, 1) translate(-106.000000, -99.500000) " points="106 91 122 108 90 108"></polygon>
        <path d="M88.875,60.7958929 L88.875,39.875 L56.875,39.875 L56.875,67.875 L64.0936667,60.7958929 L88.875,60.7958929 Z M59.5416667,61.5621206 L59.5416667,42.4901116 L86.2083333,42.4901116 L86.2083333,58.1807813 L62.9896667,58.1807813 L59.5416667,61.5621206 Z" id="Shape" fill="#FFFFFF" fill-rule="nonzero"></path>
        <path d="M54.875,70.875 L54.875,44.875 L30.875,44.875 L30.875,60.9458767 L44.9896667,60.9458767 L54.875,70.875 Z M33.5416667,47.5534794 L52.2083333,47.5534794 L52.2083333,64.4091506 L46.0936667,58.2673972 L33.5416667,58.2673972 L33.5416667,47.5534794 Z" id="Shape" fill="#FFFFFF" fill-rule="nonzero"></path>
        <rect id="Rectangle" fill="#FFFFFF" fill-rule="nonzero" x="35.875" y="51.875" width="3" height="3"></rect>
        <rect id="Rectangle" fill="#FFFFFF" fill-rule="nonzero" x="40.875" y="51.875" width="3" height="3"></rect>
        <rect id="Rectangle" fill="#FFFFFF" fill-rule="nonzero" x="46.875" y="51.875" width="3" height="3"></rect>
        <rect id="Rectangle" fill="#FFFFFF" fill-rule="nonzero" x="62.875" y="45.875" width="3" height="3"></rect>
        <rect id="Rectangle" fill="#FFFFFF" fill-rule="nonzero" x="67.875" y="45.875" width="16" height="3"></rect>
        <rect id="Rectangle" fill="#FFFFFF" fill-rule="nonzero" x="62.875" y="51.875" width="21" height="3"></rect>
        <path d="M99.875,34.2083333 L99.875,26.2083333 L65.2083333,26.2083333 L65.2083333,20.875 L54.5416667,20.875 L54.5416667,26.2083333 L19.875,26.2083333 L19.875,34.2083333 L22.5416667,34.2083333 L22.5416667,76.875 L19.875,76.875 L19.875,84.875 L54.5416667,84.875 L54.5416667,92.875 L45.2083333,92.875 L45.2083333,100.875 L74.5416667,100.875 L74.5416667,92.875 L65.2083333,92.875 L65.2083333,84.875 L99.875,84.875 L99.875,76.875 L97.2083333,76.875 L97.2083333,34.2083333 L99.875,34.2083333 Z M57.2083333,23.5416667 L62.5416667,23.5416667 L62.5416667,26.2083333 L57.2083333,26.2083333 L57.2083333,23.5416667 Z M22.5416667,28.875 L97.2083333,28.875 L97.2083333,31.5416667 L22.5416667,31.5416667 L22.5416667,28.875 Z M71.875,95.5416667 L71.875,98.2083333 L47.875,98.2083333 L47.875,95.5416667 L71.875,95.5416667 Z M62.5416667,92.875 L57.2083333,92.875 L57.2083333,84.875 L62.5416667,84.875 L62.5416667,92.875 Z M97.2083333,82.2083333 L22.5416667,82.2083333 L22.5416667,79.5416667 L97.2083333,79.5416667 L97.2083333,82.2083333 Z M94.5416667,76.875 L25.2083333,76.875 L25.2083333,34.2083333 L94.5416667,34.2083333 L94.5416667,76.875 Z" id="Shape" fill="#FFFFFF" fill-rule="nonzero"></path>
    </g>
</svg>