<svg height='100px' width='100px'  fill="#040a0c" xmlns="http://www.w3.org/2000/svg" xmlns:xlink="http://www.w3.org/1999/xlink" version="1.1" x="0px" y="0px" viewBox="0 0 140 140" style="enable-background:new 0 0 140 140;" xml:space="preserve"><g><g><path d="M73.2412109,20.4775391h-8.7763672c-0.375,0-0.71875-0.2099609-0.8896484-0.5444336    c-0.5097656-0.9951172-0.7685547-2.0454102-0.7685547-3.1206055c0-3.5878906,2.7119141-6.5068359,6.0458984-6.5068359    s6.046875,2.9189453,6.046875,6.5068359c0,1.0751953-0.2587891,2.1254883-0.7685547,3.1206055    C73.9599609,20.2675781,73.6162109,20.4775391,73.2412109,20.4775391z M65.1132812,18.4775391h7.4794922    c0.203125-0.5424805,0.3066406-1.1005859,0.3066406-1.6650391c0-2.4848633-1.8154297-4.5068359-4.046875-4.5068359    c-2.2304688,0-4.0458984,2.0219727-4.0458984,4.5068359C64.8066406,17.3769531,64.9101562,17.9350586,65.1132812,18.4775391z"></path></g><g><g><path d="M84.0351562,35.3701172h-30.359375c-0.1953125,0-0.3857422-0.0571289-0.5488281-0.1640625l-10.5683594-6.9335938     c-2.4335938-1.5756836-3.2128906-4.9824219-1.7304688-7.5913086c0.8212891-1.4433594,2.1728516-2.3974609,3.7099609-2.6176758     l13.4707031-2.4370117C58.5507812,9.6049805,63.1757812,5,68.8476562,5c5.6806641,0,10.3115234,4.6049805,10.8544922,10.6269531     l13.4912109,2.4423828c1.5214844,0.2177734,2.8759766,1.1748047,3.6787109,2.6201172     c0.484375,0.8549805,0.7421875,1.8510742,0.7421875,2.8735352c0,1.9399414-0.9208984,3.7011719-2.4628906,4.7104492     l-10.5673828,6.9326172C84.4208984,35.3129883,84.2304688,35.3701172,84.0351562,35.3701172z M53.9746094,33.3701172h29.7617188     l10.3183594-6.7695312c0.9765625-0.6391602,1.5595703-1.7744141,1.5595703-3.0375977     c0-0.6777344-0.1679688-1.3330078-0.4863281-1.8950195c-0.5009766-0.9013672-1.3212891-1.4907227-2.2539062-1.625     l-14.3007812-2.5883789c-0.4658203-0.0839844-0.8085938-0.4829102-0.8222656-0.9560547     C77.6025391,11.1723633,73.6914062,7,68.8476562,7c-4.8349609,0-8.7392578,4.1723633-8.8876953,9.4985352     c-0.0136719,0.4731445-0.3564453,0.8720703-0.8222656,0.9560547l-14.2802734,2.5825195     c-0.9560547,0.1381836-1.7783203,0.730957-2.2910156,1.6328125c-0.9511719,1.6743164-0.4550781,3.9306641,1.0849609,4.9272461     L53.9746094,33.3701172z"></path></g></g><g><path d="M113.6601562,128.6601562H26.3398438c-0.5527344,0-1-0.4477539-1-1V28.0200195c0-0.5522461,0.4472656-1,1-1h17.6503906    c0.5527344,0,1,0.4477539,1,1s-0.4472656,1-1,1H27.3398438v97.6401367h85.3203125V29.0200195H93.7197266    c-0.5527344,0-1-0.4477539-1-1s0.4472656-1,1-1h19.9404297c0.5527344,0,1,0.4477539,1,1v99.6401367    C114.6601562,128.2124023,114.2128906,128.6601562,113.6601562,128.6601562z"></path></g><g><path d="M114.7099609,135H25.2900391c-3.4628906,0-6.2802734-2.8168945-6.2802734-6.2797852V26.9599609    c0-3.4628906,2.8173828-6.2797852,6.2802734-6.2797852h16.1699219c0.5527344,0,1,0.4477539,1,1s-0.4472656,1-1,1H25.2900391    c-2.3603516,0-4.2802734,1.9199219-4.2802734,4.2797852v101.7602539c0,2.3598633,1.9199219,4.2797852,4.2802734,4.2797852    h89.4199219c2.3603516,0,4.2802734-1.9199219,4.2802734-4.2797852V26.9599609    c0-2.3598633-1.9199219-4.2797852-4.2802734-4.2797852H96.2402344c-0.5527344,0-1-0.4477539-1-1s0.4472656-1,1-1h18.4697266    c3.4628906,0,6.2802734,2.8168945,6.2802734,6.2797852v101.7602539C120.9902344,132.1831055,118.1728516,135,114.7099609,135z"></path></g><g><g><g><path d="M50.3857422,119.4072266H38.6396484c-0.5527344,0-1-0.4477539-1-1v-11.7460938c0-0.5522461,0.4472656-1,1-1h11.7460938      c0.5527344,0,1,0.4477539,1,1v11.7460938C51.3857422,118.9594727,50.9384766,119.4072266,50.3857422,119.4072266z       M39.6396484,117.4072266h9.7460938v-9.7460938h-9.7460938V117.4072266z"></path></g><g><path d="M70,119.4072266c-3.7900391,0-6.8730469-3.0830078-6.8730469-6.8730469S66.2099609,105.6611328,70,105.6611328      s6.8730469,3.0830078,6.8730469,6.8730469S73.7900391,119.4072266,70,119.4072266z M70,107.6611328      c-2.6865234,0-4.8730469,2.1860352-4.8730469,4.8730469S67.3134766,117.4072266,70,117.4072266      s4.8730469-2.1860352,4.8730469-4.8730469S72.6865234,107.6611328,70,107.6611328z"></path></g><g><path d="M101.3603516,119.4072266H89.6142578c-0.5527344,0-1-0.4477539-1-1v-11.7460938c0-0.5522461,0.4472656-1,1-1h11.7460938      c0.5527344,0,1,0.4477539,1,1v11.7460938C102.3603516,118.9594727,101.9130859,119.4072266,101.3603516,119.4072266z       M90.6142578,117.4072266h9.7460938v-9.7460938h-9.7460938V117.4072266z"></path></g></g><g><path d="M95.4873047,107.6611328c-0.5527344,0-1-0.4477539-1-1v-7.2929688H45.5126953v7.2929688c0,0.5522461-0.4472656,1-1,1     s-1-0.4477539-1-1v-8.2929688c0-0.5522461,0.4472656-1,1-1h50.9746094c0.5527344,0,1,0.4477539,1,1v8.2929688     C96.4873047,107.2133789,96.0400391,107.6611328,95.4873047,107.6611328z"></path></g><g><path d="M70,103.5146484c-0.5527344,0-1-0.4477539-1-1V93.203125c0-0.5522461,0.4472656-1,1-1s1,0.4477539,1,1v9.3115234     C71,103.0668945,70.5527344,103.5146484,70,103.5146484z"></path></g><g><g><g><g><path d="M72.2490234,87.359375h-4.4980469c-1.2382812,0-2.2460938-1.0078125-2.2460938-2.246582v-2.5610352        c-1.6796875-0.4272461-3.28125-1.0917969-4.7783203-1.9833984l-1.8134766,1.8139648        c-0.8496094,0.8486328-2.3291016,0.8491211-3.1767578-0.0004883l-3.1806641-3.1796875        c-0.875-0.8759766-0.875-2.3007812,0-3.1762695l1.8144531-1.8149414        c-0.8925781-1.4975586-1.5566406-3.0986328-1.984375-4.777832h-2.5605469        c-1.2382812,0-2.2460938-1.0078125-2.2460938-2.246582v-4.4970703c0-1.2387695,1.0078125-2.246582,2.2460938-2.246582        h2.5605469c0.4277344-1.6787109,1.0927734-3.2802734,1.984375-4.777832l-1.8144531-1.8144531        c-0.875-0.8759766-0.875-2.3007812,0-3.1762695l3.1806641-3.1801758        c0.8476562-0.8486328,2.3271484-0.8481445,3.1767578-0.0004883l1.8134766,1.8139648        c1.4970703-0.8911133,3.0986328-1.5556641,4.7783203-1.9829102v-2.5615234        c0-1.2382812,1.0078125-2.2460938,2.2460938-2.2460938h4.4980469c1.2382812,0,2.2460938,1.0078125,2.2460938,2.2460938        v2.5615234c1.6796875,0.4272461,3.28125,1.0917969,4.7783203,1.9829102l1.8134766-1.8134766        c0.8496094-0.8486328,2.3291016-0.8491211,3.1767578,0.0004883l3.1806641,3.1791992        c0.875,0.8759766,0.875,2.3007812,0,3.1762695l-1.8144531,1.8149414        c0.8916016,1.4975586,1.5566406,3.0991211,1.984375,4.777832h2.5605469c1.2382812,0,2.2460938,1.0078125,2.2460938,2.246582        v4.4970703c0,1.2387695-1.0078125,2.246582-2.2460938,2.246582h-2.5605469        c-0.4277344,1.6791992-1.0917969,3.2802734-1.984375,4.777832l1.8144531,1.8144531        c0.875,0.8759766,0.875,2.3007812,0,3.1762695l-3.1806641,3.1806641        c-0.8476562,0.8486328-2.3271484,0.8481445-3.1767578,0.0004883l-1.8134766-1.8144531        c-1.4970703,0.8916016-3.0986328,1.5561523-4.7783203,1.9833984v2.5610352        C74.4951172,86.3515625,73.4873047,87.359375,72.2490234,87.359375z M60.5820312,78.2983398        c0.1904297,0,0.3808594,0.0537109,0.5488281,0.1645508c1.7109375,1.1240234,3.5869141,1.902832,5.5761719,2.3139648        c0.4648438,0.0961914,0.7978516,0.5053711,0.7978516,0.9794922v3.3564453c0,0.1357422,0.1103516,0.246582,0.2460938,0.246582        h4.4980469c0.1357422,0,0.2460938-0.1108398,0.2460938-0.246582v-3.3564453        c0-0.4741211,0.3330078-0.8833008,0.7978516-0.9794922c1.9892578-0.4111328,3.8652344-1.1899414,5.5761719-2.3139648        c0.3964844-0.2607422,0.9199219-0.2075195,1.2558594,0.128418l2.3759766,2.3769531        c0.1181641,0.1181641,0.2294922,0.1206055,0.3486328,0.0004883l3.1806641-3.1806641        c0.0957031-0.0961914,0.0957031-0.2524414,0-0.3491211L83.6533203,75.0625        c-0.3349609-0.3354492-0.3886719-0.8598633-0.1289062-1.2563477c1.125-1.7114258,1.9033203-3.5874023,2.3144531-5.5756836        c0.0966797-0.4643555,0.5048828-0.7973633,0.9794922-0.7973633h3.3564453c0.1357422,0,0.2460938-0.1108398,0.2460938-0.246582        v-4.4970703c0-0.1357422-0.1103516-0.246582-0.2460938-0.246582h-3.3564453        c-0.4746094,0-0.8828125-0.3330078-0.9794922-0.7973633c-0.4111328-1.987793-1.1894531-3.8637695-2.3144531-5.5761719        c-0.2597656-0.3959961-0.2060547-0.9208984,0.1289062-1.2558594l2.3769531-2.3769531        c0.0957031-0.0961914,0.0957031-0.2524414,0-0.3491211l-3.1806641-3.1791992        c-0.1201172-0.1206055-0.2304688-0.1186523-0.3486328,0.0004883L80.125,51.284668        c-0.3369141,0.3359375-0.8603516,0.3881836-1.2558594,0.1289062c-1.7109375-1.1240234-3.5878906-1.902832-5.5761719-2.3139648        c-0.4648438-0.0961914-0.7978516-0.5053711-0.7978516-0.9794922v-3.3569336        c0-0.1357422-0.1103516-0.2460938-0.2460938-0.2460938h-4.4980469c-0.1357422,0-0.2460938,0.1103516-0.2460938,0.2460938        v3.3569336c0,0.4741211-0.3330078,0.8833008-0.7978516,0.9794922        c-1.9882812,0.4111328-3.8652344,1.1899414-5.5761719,2.3139648        c-0.3955078,0.2602539-0.9189453,0.2075195-1.2558594-0.1289062l-2.3759766-2.3764648        c-0.1171875-0.1176758-0.2275391-0.1196289-0.3486328-0.0004883l-3.1806641,3.1801758        c-0.0957031,0.0961914-0.0957031,0.2524414,0,0.3491211l2.3769531,2.3764648        c0.3349609,0.3349609,0.3886719,0.8598633,0.1289062,1.2558594c-1.125,1.7124023-1.9033203,3.5883789-2.3144531,5.5761719        c-0.0966797,0.4643555-0.5048828,0.7973633-0.9794922,0.7973633h-3.3564453        c-0.1357422,0-0.2460938,0.1108398-0.2460938,0.246582v4.4970703c0,0.1357422,0.1103516,0.246582,0.2460938,0.246582        h3.3564453c0.4746094,0,0.8828125,0.3330078,0.9794922,0.7973633        c0.4111328,1.9882812,1.1894531,3.8642578,2.3144531,5.5756836c0.2597656,0.3964844,0.2060547,0.9208984-0.1289062,1.2563477        l-2.3769531,2.3769531c-0.0957031,0.0961914-0.0957031,0.2524414,0,0.3491211l3.1806641,3.1796875        c0.1210938,0.1206055,0.2304688,0.1181641,0.3486328-0.0004883L59.875,78.5913086        C60.0683594,78.3979492,60.3242188,78.2983398,60.5820312,78.2983398z"></path></g></g><g><path d="M70,76.5073242c-6.3789062,0-11.5693359-5.1899414-11.5693359-11.5693359       c0-6.3789062,5.1904297-11.5688477,11.5693359-11.5688477s11.5693359,5.1899414,11.5693359,11.5688477       C81.5693359,71.3173828,76.3789062,76.5073242,70,76.5073242z M70,55.3691406       c-5.2763672,0-9.5693359,4.2924805-9.5693359,9.5688477S64.7236328,74.5073242,70,74.5073242       s9.5693359-4.2929688,9.5693359-9.5693359S75.2763672,55.3691406,70,55.3691406z"></path></g></g><g><g><g><path d="M37.3105469,83.2822266c-0.5527344,0-1-0.4477539-1-1v-31.875c0-0.5522461,0.4472656-1,1-1h7.8388672        c0.5527344,0,1,0.4477539,1,1s-0.4472656,1-1,1h-6.8388672v30.875        C38.3105469,82.8344727,37.8632812,83.2822266,37.3105469,83.2822266z"></path></g><g><path d="M37.3105469,83.2822266c-0.265625,0-0.5195312-0.1054688-0.7070312-0.2929688l-5.9042969-5.9038086        c-0.390625-0.390625-0.390625-1.0234375,0-1.4140625s1.0234375-0.390625,1.4140625,0l5.1972656,5.1967773l5.1962891-5.1967773        c0.390625-0.390625,1.0234375-0.390625,1.4140625,0s0.390625,1.0234375,0,1.4140625l-5.9033203,5.9038086        C37.8300781,83.1767578,37.5761719,83.2822266,37.3105469,83.2822266z"></path></g></g><g><g><path d="M102.6904297,83.2822266c-0.5527344,0-1-0.4477539-1-1v-30.875h-6.8398438c-0.5527344,0-1-0.4477539-1-1        s0.4472656-1,1-1h7.8398438c0.5527344,0,1,0.4477539,1,1v31.875        C103.6904297,82.8344727,103.2431641,83.2822266,102.6904297,83.2822266z"></path></g><g><path d="M102.6904297,83.2822266c-0.265625,0-0.5195312-0.1054688-0.7070312-0.2929688l-5.9042969-5.9038086        c-0.390625-0.390625-0.390625-1.0234375,0-1.4140625s1.0234375-0.390625,1.4140625,0l5.1972656,5.1967773l5.1962891-5.1967773        c0.390625-0.390625,1.0234375-0.390625,1.4140625,0s0.390625,1.0234375,0,1.4140625l-5.9033203,5.9038086        C103.2099609,83.1767578,102.9560547,83.2822266,102.6904297,83.2822266z"></path></g></g></g></g></g></g></svg>