<?xml version="1.0" encoding="UTF-8"?><svg height="178" viewBox="0 0 174 178" width="174" xmlns="http://www.w3.org/2000/svg"><g fill="#fff" fill-rule="evenodd"><path d="m40 46c7.1797017 0 13-5.8202983 13-13 0-2.271633-.5826514-4.4071804-1.6066622-6.2653505-.1952252-.3542557.5994434-1.6106703 2.384006-3.7692437-.7469422-.5133491-1.7064673-.7220867-2.8785751-.6262128-1.7581618.1438109-2.2461987.9455079-2.6333947.6262128-2.246609-1.8526306-5.1260402-2.9654058-8.265374-2.9654058-7.1797017 0-13 5.8202983-13 13s5.8202983 13 13 13z" transform="matrix(-.99862953 -.05233596 .05233596 -.99862953 78.994906 68.068554)"/><circle cx="139" cy="37" r="11"/><circle cx="14" cy="114" r="11"/><path d="m101 103c7.179702 0 13-5.8202983 13-13s-5.820298-13-13-13c-2.7504296 0-5.3013621.8541487-7.4020109 2.3116596-.4470578.3101859-1.3041952 1.577732-2.1453524.6883404-.3563731-.3768086-.8995046-1.703306-1.6293945-3.9794922-1.2154948 2.1941012-1.8232422 4.0313408-1.8232422 5.5117188 0 2.2205669 1.1433848 3.1126603.9845243 3.4961703-.6344117 1.5315521-.9845243 3.210691-.9845243 4.9716031 0 7.1797017 5.8202983 13 13 13z" transform="matrix(.48480962 .87461971 -.87461971 .48480962 130.32166 -42.221769)"/><circle cx="87" cy="163" r="15"/><path d="m156.5 125c8.560414 0 15.5-6.939586 15.5-15.5s-6.939586-15.5-15.5-15.5-15.5 6.939586-15.5 15.5c0 3.379199 1.081363 6.505832 2.916924 9.052734.565924.785237-.010063 3.600992-1.727959 8.447266 4.533958-2.585124 7.188256-3.703588 7.962894-3.355391 1.937472.870888 4.086226 1.355391 6.348141 1.355391z" transform="matrix(.9961947 -.08715574 .08715574 .9961947 -9.03518 14.06036)"/><path d="m62 123c4.3820457 0 8.4778682-1.225467 11.9634529-3.352388.3255717-.198665 2.1243669 1.668103 3.7137932 2.352388 1.5485026.666667 3.3227539 1 5.3227539 1-1.0884622-2.595764-1.756431-4.335022-2.0039063-5.217773-.8747696-3.120329.4443056-5.453814.890102-6.21882 1.9797171-3.397284 3.1138043-7.347905 3.1138043-11.563407 0-12.7025492-10.2974508-23-23-23s-23 10.2974508-23 23c0 12.702549 10.2974508 23 23 23z" transform="matrix(.62932039 .77714596 -.77714596 .62932039 100.696732 -11.115089)"/><path d="m97 57c14.359403 0 26-11.6405965 26-26s-11.640597-26-26-26c-14.3594035 0-26 11.6405965-26 26 0 6.8054997 2.6147036 13.0003026 6.8943313 17.6346292.9097515.9851523 1.8947393 1.8997881 2.9458397 2.7347837.5327605.4232257 1.1188005 1.6801078 0 4.6305871-.3429174.9043353-1.3248639 2.5002011-2.9458397 4.7875977 3.4037791 0 6.1893276-.8123373 8.3566453-2.4370118 3.2509765-2.4370117 2.4201294-2.7053618 3.0139855-2.5205625 2.4434111.7603533 5.0413882 1.1699766 7.7350379 1.1699766z" transform="matrix(.9781476 .20791169 -.20791169 .9781476 8.958688 -19.448626)"/><path d="m106 146c11.045695 0 20-8.954305 20-20s-8.954305-20-20-20-20 8.954305-20 20c0 2.032252.3031105 3.993709.8665887 5.841628.2027287.664846 1.2208623 2.587699 0 4.613938-.5361626.889858-2.1583588 2.327599-4.8665887 4.313222 1.968099.820808 3.968099 1.231212 6 1.231212 2.9232919 0 3.9054598-1.786696 4.5134141-1.231212 3.5561736 3.249253 8.2899239 5.231212 13.4865859 5.231212z" transform="matrix(.99254615 -.12186934 .12186934 .99254615 -14.580337 13.613597)"/><path d="m131 89c.788688 0 1.565528-.050724 2.327438-.1490877.584922-.0755144.107087 1.355687 1.403519 2.6490877 1.670573 1.6666667 3.760254 2.5 6.269043 2.5-1.355013-1.7699333-1.976595-3.1032667-1.864746-4 .321576-2.5782019 2.029349-4.1286132 2.548622-4.5121836 4.437991-3.2781988 7.316124-8.5468957 7.316124-14.4878164 0-9.9411255-8.058875-18-18-18s-18 8.0588745-18 18 8.058875 18 18 18z" transform="matrix(.89100652 -.4539905 .4539905 .89100652 -19.090156 67.483776)"/><path d="m35.5 157c4.0259256 0 7.7514936-1.285984 10.7883361-3.469584.4795781-.344834 2.7489007.878306 5.2342235.469584.9512221-.156432 2.4463064-.934916 4.4852529-2.335449-1.9862593-.314052-3.2279585-.656825-3.7250977-1.028321-1.1766079-.87924-1.0116424-2.447483-.7601552-2.881962 1.5756008-2.722068 2.4774404-5.88285 2.4774404-9.254268 0-10.217268-8.2827321-18.5-18.5-18.5s-18.5 8.282732-18.5 18.5 8.2827321 18.5 18.5 18.5z" transform="matrix(.99254615 -.12186934 .12186934 .99254615 -16.606809 5.481065)"/><path d="m25 86c5.9155881 0 11.2313233-2.5682757 14.893005-6.6506266.3803633-.424061 1.4037644.4240611 4.396493 0 1.9951524-.2827073 3.898653-1.3991651 5.710502-3.3493734-2.8213581-.0215376-4.4880247-.3548709-5-1-1.2274545-1.5466891-.8806185-3.0772124-.710502-3.6974697.463166-1.6887377.710502-3.4667498.710502-5.3025303 0-11.045695-8.954305-20-20-20s-20 8.954305-20 20 8.954305 20 20 20z"/><circle cx="86" cy="70" r="9"/><circle cx="134.5" cy="125.5" r="5.5"/><circle cx="62.5" cy="43.5" r="6.5"/><circle cx="149" cy="141" r="8"/><circle cx="7" cy="90" r="7"/><circle cx="152.5" cy="53.5" r="5.5"/><circle cx="26.5" cy="96.5" r="7.5"/><circle cx="132" cy="140" r="4"/><circle cx="48" cy="52" r="4"/><circle cx="167" cy="88" r="4"/><circle cx="32" cy="114" r="4"/><circle cx="104" cy="65" r="4"/><circle cx="109" cy="154" r="4"/><circle cx="65" cy="150" r="4"/><circle cx="72.5" cy="134.5" r="8.5"/><circle cx="160" cy="72" r="9"/><circle cx="129" cy="103" r="9"/><circle cx="61" cy="64" r="11"/><circle cx="127" cy="158" r="11"/><circle cx="62" cy="18" r="9"/><circle cx="58" cy="164" r="9"/><circle cx="110.5" cy="169.5" r="5.5"/><circle cx="129" cy="20" r="4"/></g></svg>